<svg width="22" height="25" viewBox="0 0 22 25" fill="none" xmlns="http://www.w3.org/2000/svg">
<g clip-path="url(#clip0_2_4)">
<path d="M7.815 19.5312C7.815 19.9609 7.46344 20.3125 7.03375 20.3125C6.60406 20.3125 6.2525 19.9609 6.2525 19.5312V9.375C6.2525 8.94531 6.60406 8.59375 7.03375 8.59375C7.46344 8.59375 7.815 8.94531 7.815 9.375V19.5312ZM11.7213 19.5312C11.7213 19.9609 11.3697 20.3125 10.94 20.3125C10.5103 20.3125 10.1588 19.9609 10.1588 19.5312V9.375C10.1588 8.94531 10.5103 8.59375 10.94 8.59375C11.3697 8.59375 11.7213 8.94531 11.7213 9.375V19.5312ZM15.6275 19.5312C15.6275 19.9609 15.2759 20.3125 14.8463 20.3125C14.4166 20.3125 14.065 19.9609 14.065 19.5312V9.375C14.065 8.94531 14.4166 8.59375 14.8463 8.59375C15.2759 8.59375 15.6275 8.94531 15.6275 9.375V19.5312ZM15.5054 1.21777L17.2974 3.90625H20.7056C21.355 3.90625 21.8775 4.43115 21.8775 5.07812C21.8775 5.72754 21.355 6.25 20.7056 6.25H20.315V21.0938C20.315 23.252 18.567 25 16.4088 25H5.47125C3.31403 25 1.565 23.252 1.565 21.0938V6.25H1.17438C0.527405 6.25 0.00250244 5.72754 0.00250244 5.07812C0.00250244 4.43115 0.527405 3.90625 1.17438 3.90625H4.58356L6.37457 1.21777C6.88239 0.456885 7.73688 0 8.64996 0H13.23C14.1431 0 14.9976 0.456934 15.5054 1.21777V1.21777ZM7.39996 3.90625H14.48L13.5523 2.51758C13.4791 2.40918 13.357 2.34375 13.23 2.34375H8.64996C8.52301 2.34375 8.35699 2.40918 8.3277 2.51758L7.39996 3.90625ZM3.90875 21.0938C3.90875 21.958 4.60846 22.6562 5.47125 22.6562H16.4088C17.273 22.6562 17.9713 21.958 17.9713 21.0938V6.25H3.90875V21.0938Z" fill="#55ACEE"/>
</g>
<defs>
<clipPath id="clip0_2_4">
<rect width="21.88" height="25" fill="white"/>
</clipPath>
</defs>
</svg>
