<svg width="25" height="25" viewBox="0 0 25 25" fill="none" xmlns="http://www.w3.org/2000/svg">
<path d="M12.75 4.1C17.1625 4.1 20.7875 7.3625 21.4 11.6H24L19.625 16.6L15.25 11.6H18.15C17.8704 10.3764 17.1841 9.28373 16.2033 8.50046C15.2225 7.7172 14.0052 7.2896 12.75 7.2875C10.9375 7.2875 9.3375 8.175 8.325 9.5125L6.1875 7.075C7.00564 6.13945 8.0146 5.3899 9.14654 4.87675C10.2785 4.36361 11.5072 4.09875 12.75 4.1V4.1ZM12.25 20.9C7.85 20.9 4.2125 17.6375 3.6 13.4H1L5.375 8.4C6.8375 10.0625 8.2875 11.7375 9.75 13.4H6.85C7.12965 14.6236 7.81589 15.7163 8.79668 16.4995C9.77746 17.2828 10.9948 17.7104 12.25 17.7125C14.0625 17.7125 15.6625 16.825 16.675 15.4875L18.8125 17.925C17.9951 18.8615 16.9863 19.6117 15.8542 20.1249C14.7221 20.6382 13.493 20.9025 12.25 20.9V20.9Z" fill="#55ACEE"/>
</svg>
